<?xml version="1.0" encoding="iso-8859-1"?>
<!-- Generator: Adobe Illustrator 19.0.0, SVG Export Plug-In . SVG Version: 6.00 Build 0)  -->
<svg version="1.1" id="Layer_1" xmlns="http://www.w3.org/2000/svg" xmlns:xlink="http://www.w3.org/1999/xlink" x="0px" y="0px"
	 viewBox="0 0 512 512" fill="rgba(255, 255, 255, 0.75)" style="enable-background:new 0 0 512 512;" xml:space="preserve">
<g>
	<g>
		<path d="M116.754,478.609V134.958h98.131V384.84c0,36.352,29.574,65.927,65.926,65.927h6.254
			c36.352,0,65.926-29.575,65.926-65.927V78.278H373.5V44.887H194.378v33.391h20.509v23.288h-98.131V0H83.364v512h345.272v-33.391
			H116.754z M319.602,384.84c0,17.94-14.595,32.534-32.535,32.534h-6.254c-17.94,0-32.534-14.595-32.534-32.535V219.68h71.323
			V384.84z M248.278,78.278h71.324v23.288h-71.324V78.278z M248.278,134.958h71.324v51.331h-71.324V134.958z"/>
	</g>
</g>
<g>
</g>
<g>
</g>
<g>
</g>
<g>
</g>
<g>
</g>
<g>
</g>
<g>
</g>
<g>
</g>
<g>
</g>
<g>
</g>
<g>
</g>
<g>
</g>
<g>
</g>
<g>
</g>
<g>
</g>
</svg>
