<?xml version="1.0" encoding="iso-8859-1"?>
<!-- Generator: Adobe Illustrator 19.0.0, SVG Export Plug-In . SVG Version: 6.00 Build 0)  -->
<svg version="1.1" id="Layer_1" xmlns="http://www.w3.org/2000/svg" xmlns:xlink="http://www.w3.org/1999/xlink" x="0px" y="0px"
	 viewBox="0 0 230.569 230.569" style="enable-background:new 0 0 230.569 230.569;" xml:space="preserve">
<g>
	<g>
		<g>
			<path d="M104.991,107.05c-7.945,0-14.411,6.465-14.411,14.411s6.465,14.411,14.411,14.411c7.946,0,14.411-6.465,14.411-14.411
				S112.936,107.05,104.991,107.05z M104.991,127.636c-3.405,0-6.176-2.771-6.176-6.176c0-3.405,2.771-6.176,6.176-6.176
				c3.405,0,6.176,2.771,6.176,6.176C111.167,124.865,108.397,127.636,104.991,127.636z"/>
			<path d="M197.631,172.927c-6.86,0-13.161,2.418-18.115,6.434l-29.011-26.393c3.752-6.205,5.952-13.449,5.952-21.214
				c0-21.314-16.279-38.892-37.056-40.964V57.314c13.944-2.008,24.704-14.001,24.704-28.493C144.106,12.929,131.177,0,115.285,0
				C99.393,0,86.463,12.929,86.463,28.821c0,14.491,10.76,26.484,24.704,28.493V90.79c-20.777,2.073-37.056,19.651-37.056,40.964
				c0,7.763,2.199,15.006,5.949,21.21l-28.766,26.583c-4.989-4.133-11.387-6.62-18.356-6.62c-15.892,0-28.821,12.929-28.821,28.821
				c0,15.892,12.929,28.821,28.821,28.821c15.892,0,28.822-12.929,28.822-28.821c0-5.96-1.819-11.503-4.93-16.104l28.199-26.06
				c7.53,8.179,18.287,13.343,30.255,13.343s22.726-5.164,30.256-13.343l28.38,25.819c-3.215,4.649-5.11,10.277-5.11,16.345
				c0,15.892,12.929,28.821,28.821,28.821c15.892,0,28.821-12.929,28.821-28.821C226.452,185.856,213.523,172.927,197.631,172.927z
				 M32.938,222.334c-11.351,0-20.587-9.236-20.587-20.587c0-11.351,9.236-20.587,20.587-20.587s20.587,9.236,20.587,20.587
				C53.525,213.099,44.289,222.334,32.938,222.334z M94.698,28.821c0-11.351,9.236-20.587,20.587-20.587
				c11.351,0,20.587,9.236,20.587,20.587s-9.236,20.587-20.587,20.587C103.934,49.408,94.698,40.172,94.698,28.821z
				 M115.285,164.692c-18.162,0-32.938-14.777-32.938-32.938s14.777-32.938,32.938-32.938s32.938,14.777,32.938,32.938
				C148.223,149.915,133.446,164.692,115.285,164.692z M197.631,222.334c-11.351,0-20.587-9.236-20.587-20.587
				c0-5.595,2.259-10.662,5.894-14.376l0.202-0.222c3.723-3.697,8.843-5.989,14.491-5.989c11.351,0,20.587,9.236,20.587,20.587
				C218.217,213.099,208.981,222.334,197.631,222.334z"/>
			<path d="M197.631,185.279c-9.081,0-16.469,7.388-16.469,16.469c0,2.274,1.844,4.117,4.117,4.117s4.117-1.844,4.117-4.117
				c0-4.541,3.693-8.235,8.235-8.235c2.274,0,4.117-1.844,4.117-4.117C201.748,187.122,199.904,185.279,197.631,185.279z"/>
			<path d="M32.938,185.279c-9.081,0-16.469,7.388-16.469,16.469c0,2.274,1.844,4.117,4.117,4.117s4.117-1.844,4.117-4.117
				c0-4.541,3.693-8.235,8.235-8.235c2.274,0,4.117-1.844,4.117-4.117C37.056,187.122,35.212,185.279,32.938,185.279z"/>
			<path d="M119.402,16.469c0-2.274-1.844-4.117-4.117-4.117c-9.081,0-16.469,7.388-16.469,16.469c0,2.274,1.844,4.117,4.117,4.117
				c2.274,0,4.117-1.844,4.117-4.117c0-4.541,3.693-8.235,8.235-8.235C117.558,20.587,119.402,18.743,119.402,16.469z"/>
		</g>
	</g>
</g>
<g>
</g>
<g>
</g>
<g>
</g>
<g>
</g>
<g>
</g>
<g>
</g>
<g>
</g>
<g>
</g>
<g>
</g>
<g>
</g>
<g>
</g>
<g>
</g>
<g>
</g>
<g>
</g>
<g>
</g>
</svg>
