<?xml version="1.0" encoding="iso-8859-1"?>
<!-- Generator: Adobe Illustrator 16.0.0, SVG Export Plug-In . SVG Version: 6.00 Build 0)  -->
<!DOCTYPE svg PUBLIC "-//W3C//DTD SVG 1.1//EN" "http://www.w3.org/Graphics/SVG/1.1/DTD/svg11.dtd">
<svg version="1.1" id="Capa_1" xmlns="http://www.w3.org/2000/svg" xmlns:xlink="http://www.w3.org/1999/xlink" x="0px" y="0px"
	 width="45.77px" height="45.77px" fill="rgba(255, 255, 255, 0.75)" viewBox="0 0 45.77 45.77" style="enable-background:new 0 0 45.77 45.77;" xml:space="preserve"
	>
<g>
	<g>
		<path d="M37.906,0H24.608c-3.61,0-6.579,2.921-6.579,6.53v32.694c0,3.609,2.969,6.545,6.579,6.545h13.299
			c3.608,0,6.55-2.936,6.55-6.545V6.53C44.456,2.921,41.516,0,37.906,0z M39.497,39.225c0,0.879-0.713,1.586-1.591,1.586H24.608
			c-0.881,0-1.62-0.707-1.62-1.586V6.53c0-0.878,0.739-1.57,1.62-1.57h13.299c0.878,0,1.591,0.692,1.591,1.57L39.497,39.225
			L39.497,39.225z"/>
		<path d="M37.23,8.701c0-0.58-0.471-1.049-1.05-1.049H26.162c-0.579,0-1.048,0.47-1.048,1.049v5.837
			c0,0.579,0.469,1.049,1.048,1.049h10.019c0.579,0,1.05-0.47,1.05-1.049V8.701z"/>
		<path d="M37.23,20.32c0-0.579-0.471-1.048-1.05-1.048H26.162c-0.579,0-1.048,0.469-1.048,1.048v5.838
			c0,0.579,0.469,1.049,1.048,1.049h10.019c0.579,0,1.05-0.47,1.05-1.049V20.32z"/>
		<path d="M36.207,30.821h-9.848c-0.679,0-1.245,0.581-1.245,1.258v5.472c0,0.678,0.566,1.207,1.245,1.207h9.848
			c0.58,0,1.022-0.449,1.022-1.029v-5.826C37.23,31.322,36.787,30.821,36.207,30.821z"/>
		<g>
			<path d="M8.041,14.937c-0.009,0-0.046,0-0.057,0c-1.896,0-3.708,0.863-4.974,2.279c-1.268,1.417-1.869,3.331-1.655,5.218
				l3.063,19.802c0.21,1.867,1.736,3.406,3.594,3.406c1.86,0,3.384-1.529,3.597-3.396l3.061-19.813
				c0.214-1.887-0.389-3.8-1.655-5.217C11.749,15.8,9.941,14.937,8.041,14.937z"/>
			<circle cx="8.013" cy="6.684" r="6.571"/>
		</g>
	</g>
</g>
<g>
</g>
<g>
</g>
<g>
</g>
<g>
</g>
<g>
</g>
<g>
</g>
<g>
</g>
<g>
</g>
<g>
</g>
<g>
</g>
<g>
</g>
<g>
</g>
<g>
</g>
<g>
</g>
<g>
</g>
</svg>
