<?xml version="1.0" encoding="iso-8859-1"?>
<!-- Generator: Adobe Illustrator 18.1.1, SVG Export Plug-In . SVG Version: 6.00 Build 0)  -->
<svg version="1.1" id="Capa_1" xmlns="http://www.w3.org/2000/svg" xmlns:xlink="http://www.w3.org/1999/xlink" x="0px" y="0px"
	 viewBox="0 0 42.961 42.961" fill="rgba(255, 255, 255, 0.75)" style="enable-background:new 0 0 42.961 42.961;" xml:space="preserve">
<g>
	<path  d="M42.715,7.654c-0.017-0.022-0.03-0.045-0.049-0.065c-0.022-0.021-0.047-0.035-0.071-0.053
		c-0.157-0.142-0.36-0.244-0.634-0.244c-3.709,0-7.418,0-11.127,0V4.627h-4v2.665c-4,0-8,0-12,0V4.627h-4v2.665
		c-2.024,0-4.049,0-6.073,0c-1.254,0-2.507,0-3.761,0c-0.545,0-1,0.455-1,1c0,5.894,0,11.787,0,17.681c0,3.787,0,7.574,0,11.361
		c0,0.545,0.455,1,1,1c6.157,0,12.313,0,18.47,0c4.975,0,9.951,0,14.926,0c2.522,0,5.043,0,7.565,0c0.545,0,1-0.455,1-1
		c0-5.895,0-11.787,0-17.681c0-3.787,0-7.574,0-11.361C42.962,8.016,42.858,7.812,42.715,7.654z M37.994,34.422
		c-4.826,0.638-9.653,1.275-14.479,1.912c-0.014,0-0.027,0-0.041,0c0.503-0.132,1.009-0.254,1.509-0.391
		c4.463-1.221,8.996-2.649,13.062-4.896c0.706-0.391,1.409-0.817,2.069-1.299C39.407,31.306,38.701,32.863,37.994,34.422z
		 M34.57,28.955c0.015-0.004,0.011-0.004,0.016-0.006c0.012-0.001,0.018-0.001,0.05-0.004c0.164-0.018,0.328-0.033,0.492-0.049
		c0.465-0.045,0.929-0.088,1.394-0.131c1.216-0.112,2.432-0.221,3.648-0.33c-1.104,0.929-2.393,1.649-3.667,2.295
		c-2.108,1.068-4.33,1.907-6.565,2.664c-3.296,1.113-6.666,2.02-10.06,2.794c4.55-2.362,9.108-4.73,13.769-6.854
		C34.016,29.167,34.195,29.061,34.57,28.955z M10.834,9.292v2.335h4V9.292c0.323,0,0.646,0,0.969,0c3.678,0,7.354,0,11.031,0v2.335
		h4V9.292c2.455,0,4.911,0,7.366,0c0.921,0,1.841,0,2.761,0c0,2.195,0,4.39,0,6.585c-4.885,0-9.769,0-14.654,0
		c-7.343,0-14.686,0-22.029,0c-0.759,0-1.519,0-2.278,0c0-2.195,0-4.39,0-6.585C4.945,9.292,7.889,9.292,10.834,9.292z M2,36.334
		c0-5.561,0-11.12,0-16.681c0-0.758,0-1.517,0-2.276c4.759,0,9.519,0,14.278,0c7.343,0,14.686,0,22.029,0c0.886,0,1.77,0,2.654,0
		c0,2.865,0,5.73,0,8.596c0,0.464,0,0.928,0,1.392c-1.438,0.128-2.877,0.257-4.314,0.39c-1.117,0.104-2.146,0.119-3.174,0.568
		c-3.244,1.424-6.391,3.097-9.549,4.697c-2.165,1.097-4.327,2.204-6.485,3.314c-3.575,0-7.15,0-10.726,0
		C5.143,36.334,3.571,36.334,2,36.334z M31.096,36.334c1.751-0.231,3.504-0.463,5.254-0.693c0.52-0.07,1.039-0.138,1.559-0.207
		c0.266-0.035,0.734-0.029,0.859-0.306c0.73-1.613,1.462-3.227,2.193-4.839c0,2.015,0,4.029,0,6.045
		C37.673,36.334,34.384,36.334,31.096,36.334z"/>
</g>
<g>
</g>
<g>
</g>
<g>
</g>
<g>
</g>
<g>
</g>
<g>
</g>
<g>
</g>
<g>
</g>
<g>
</g>
<g>
</g>
<g>
</g>
<g>
</g>
<g>
</g>
<g>
</g>
<g>
</g>
</svg>
